<svg xmlns="http://www.w3.org/2000/svg" xmlns:xlink="http://www.w3.org/1999/xlink" width="24" height="24" viewBox="0 0 24 24">
  <defs>
    <clipPath id="clip-Administrator">
      <rect width="24" height="24"/>
    </clipPath>
  </defs>
  <g id="Administrator" clip-path="url(#clip-Administrator)">
    <g id="Admistration" transform="translate(-3 -5)">
      <path id="Union" d="M14.928,7.585A4.027,4.027,0,0,1,9.78,7.068,4.186,4.186,0,0,1,9.272,1.84,4.092,4.092,0,0,1,11.1.315a4.033,4.033,0,0,1,4.444.9,4.188,4.188,0,0,1,.884,4.513A4.128,4.128,0,0,1,14.928,7.585Zm-.779-5.7a2.644,2.644,0,0,0-2.51-.252,2.673,2.673,0,0,0-.868.589,2.72,2.72,0,0,0-.58.882,2.755,2.755,0,0,0,.247,2.549,2.685,2.685,0,0,0,1.2,1,2.645,2.645,0,0,0,2.915-.589,2.74,2.74,0,0,0-.405-4.18Z" transform="translate(2.34 5)"/>
      <path id="Union-2" data-name="Union" d="M23.156,8.095A2.546,2.546,0,0,1,19.9,7.768a2.647,2.647,0,0,1-.322-3.305A2.587,2.587,0,0,1,20.737,3.5a2.55,2.55,0,0,1,2.81.568,2.641,2.641,0,0,1-.391,4.029Zm-.782-3.166a1.158,1.158,0,0,0-1.479.148,1.2,1.2,0,0,0-.146,1.5,1.176,1.176,0,0,0,.526.438,1.159,1.159,0,0,0,1.277-.258,1.2,1.2,0,0,0-.178-1.831Z" transform="translate(1.527 4.746)"/>
      <path id="Union-3" data-name="Union" d="M20.819,10.726H19.731a3.153,3.153,0,0,0-1.716.508A3.223,3.223,0,0,0,16.839,12.6a5.663,5.663,0,0,0-1.9-1.385,5.586,5.586,0,0,0-2.286-.489H11.345a5.586,5.586,0,0,0-2.287.488A5.663,5.663,0,0,0,7.16,12.6a3.223,3.223,0,0,0-1.176-1.365,3.153,3.153,0,0,0-1.714-.509H3.183a3.153,3.153,0,0,0-2.245.938A3.252,3.252,0,0,0,0,13.938v5.2a1.41,1.41,0,0,0,.405.987,1.367,1.367,0,0,0,.973.408h4.3a1.679,1.679,0,0,0,.528,1.085,1.63,1.63,0,0,0,1.111.438h9.37a1.63,1.63,0,0,0,1.109-.439,1.679,1.679,0,0,0,.526-1.084h4.249a1.416,1.416,0,0,0,1.008-.422A1.46,1.46,0,0,0,24,19.088v-5.15a3.252,3.252,0,0,0-.937-2.274A3.153,3.153,0,0,0,20.819,10.726ZM1.406,13.938a1.81,1.81,0,0,1,.525-1.266,1.755,1.755,0,0,1,1.252-.519H4.271a1.755,1.755,0,0,1,1.252.519,1.81,1.81,0,0,1,.525,1.266v.489a8.573,8.573,0,0,0-.38,3.525c0,.341,0,.721,0,1.151H1.406Zm15.517,6.45a.242.242,0,0,1-.069.169.234.234,0,0,1-.167.07H7.318a.233.233,0,0,1-.09-.018.236.236,0,0,1-.077-.052A.24.24,0,0,1,7.1,20.48a.243.243,0,0,1-.018-.092v-3.9a4.372,4.372,0,0,1,1.251-3.063,4.239,4.239,0,0,1,3.016-1.271h1.311a4.239,4.239,0,0,1,3.016,1.271,4.372,4.372,0,0,1,1.251,3.063Zm5.672-1.3s0,0,0,.007-.112.011-1.578.01H18.329c0-.434,0-.816,0-1.159a8.518,8.518,0,0,0-.38-3.518v-.489a1.81,1.81,0,0,1,.525-1.266,1.755,1.755,0,0,1,1.252-.519h1.087a1.755,1.755,0,0,1,1.252.519,1.81,1.81,0,0,1,.525,1.266Z" transform="translate(3 4.175)"/>
      <path id="Union-4" data-name="Union" d="M5.278,8.095a2.546,2.546,0,0,1-3.255-.327A2.647,2.647,0,0,1,1.7,4.463,2.587,2.587,0,0,1,2.859,3.5a2.55,2.55,0,0,1,2.81.568,2.641,2.641,0,0,1-.391,4.029ZM4.5,4.928a1.158,1.158,0,0,0-1.479.148,1.2,1.2,0,0,0-.146,1.5,1.176,1.176,0,0,0,.526.438,1.159,1.159,0,0,0,1.277-.258A1.2,1.2,0,0,0,4.5,4.928Z" transform="translate(2.903 4.746)"/>
    </g>
  </g>
</svg>
