<svg xmlns="http://www.w3.org/2000/svg" xmlns:xlink="http://www.w3.org/1999/xlink" width="24" height="24" viewBox="0 0 24 24">
  <defs>
    <clipPath id="clip-Alarm">
      <rect width="24" height="24"/>
    </clipPath>
  </defs>
  <g id="Alarm" clip-path="url(#clip-Alarm)">
    <g id="Rectangle_3" data-name="Rectangle 3" fill="#fff" stroke="#5414b4" stroke-width="1">
      <rect width="24" height="24" rx="4" stroke="none"/>
      <rect x="0.5" y="0.5" width="23" height="23" rx="3.5" fill="none"/>
    </g>
    <g id="Group_2755" data-name="Group 2755" transform="translate(-416 -513)">
      <path id="Path_904" data-name="Path 904" d="M4.6,0A.466.466,0,0,1,4.807.2a.417.417,0,0,1,.047.269c-.01.322,0,.645,0,.958a6.149,6.149,0,0,1,.655.175A3.446,3.446,0,0,1,6.977,2.668a3.067,3.067,0,0,1,.656,1.618,2.421,2.421,0,0,1,.027.377c0,.408.008.816,0,1.225A3.255,3.255,0,0,0,7.9,7.307a3.477,3.477,0,0,0,.839,1.21.87.87,0,0,1,.23.345.815.815,0,0,1,.038.4.841.841,0,0,1-.162.376.931.931,0,0,1-.328.269.805.805,0,0,1-.3.059c-.644.005-1.286,0-1.93,0H6.17a1.845,1.845,0,0,1-.3.7,1.5,1.5,0,0,1-.714.6,1.653,1.653,0,0,1-.961.087,1.774,1.774,0,0,1-.871-.465,1.561,1.561,0,0,1-.446-.833c-.022-.078-.051-.095-.122-.095H.812a.831.831,0,0,1-.469-.147.73.73,0,0,1-.281-.376.815.815,0,0,1-.043-.488.858.858,0,0,1,.247-.433,3.33,3.33,0,0,0,.907-1.368,3.176,3.176,0,0,0,.178-1.021V4.787a3.106,3.106,0,0,1,.6-1.99A3.534,3.534,0,0,1,3.715,1.53c.14-.041.288-.064.445-.1,0-.03.006-.068.006-.108,0-.286.008-.571,0-.856A.425.425,0,0,1,4.208.2a.473.473,0,0,1,.2-.2ZM4.51,9.258H8.105c.082,0,.181.028.218-.084s-.06-.147-.116-.2A3.932,3.932,0,0,1,6.986,6.157c-.011-.451,0-.9,0-1.354a3.182,3.182,0,0,0-.048-.552,2.443,2.443,0,0,0-3.36-1.906,2.635,2.635,0,0,0-1.12.929,2.351,2.351,0,0,0-.406,1.339c-.029.461-.01.926-.01,1.39a4.009,4.009,0,0,1-.87,2.579c-.128.161-.279.3-.419.455a.2.2,0,0,0-.044.152c.01.035.08.054.126.072a.244.244,0,0,0,.084,0Zm-.94.715a.873.873,0,0,0,.331.508,1.017,1.017,0,0,0,1.21,0,.873.873,0,0,0,.331-.508Z" transform="translate(423.404 519.607)" fill="#5414b4"/>
      <path id="Path_905" data-name="Path 905" d="M2.856,4.769v.238a.414.414,0,0,1-.033.164.427.427,0,0,1-.1.139.445.445,0,0,1-.143.093.458.458,0,0,1-.339,0A.445.445,0,0,1,2.1,5.312.427.427,0,0,1,2,5.173a.415.415,0,0,1-.034-.163,5.9,5.9,0,0,0-.185-1.452A5.911,5.911,0,0,0,.189.8.493.493,0,0,1,.044.615.475.475,0,0,1,0,.39.391.391,0,0,1,.086.17a.414.414,0,0,1,.2-.136A.417.417,0,0,1,.535.009.407.407,0,0,1,.752.131a12.867,12.867,0,0,1,.9,1.064A6.432,6.432,0,0,1,2.819,4.346c.007.07.018.14.022.211s0,.141,0,.212Z" transform="translate(430.989 519.628)" fill="#5414b4"/>
      <path id="Path_906" data-name="Path 906" d="M2.856,4.769v.238a.42.42,0,0,1-.129.3.455.455,0,0,1-.627,0,.42.42,0,0,1-.131-.3,5.887,5.887,0,0,0-.185-1.452A5.911,5.911,0,0,0,.189.8.493.493,0,0,1,.044.615.476.476,0,0,1,0,.39.391.391,0,0,1,.086.17a.414.414,0,0,1,.2-.136A.417.417,0,0,1,.535.009.407.407,0,0,1,.752.131a12.918,12.918,0,0,1,.9,1.064A6.435,6.435,0,0,1,2.819,4.346c.007.07.018.14.021.211s0,.141,0,.212Z" transform="translate(433.144 519)" fill="#5414b4"/>
      <path id="Path_907" data-name="Path 907" d="M0,4.793A6.742,6.742,0,0,1,2.085.124.445.445,0,0,1,2.23.032a.458.458,0,0,1,.339,0,.444.444,0,0,1,.143.093.427.427,0,0,1,.1.139.413.413,0,0,1,0,.327.427.427,0,0,1-.1.138A6.032,6.032,0,0,0,1.144,3.275,6.184,6.184,0,0,0,.881,4.982a.418.418,0,0,1-.134.3.452.452,0,0,1-.623-.009A.417.417,0,0,1,0,4.968C0,4.908,0,4.85,0,4.793Z" transform="translate(422.065 519.65)" fill="#5414b4"/>
      <path id="Path_908" data-name="Path 908" d="M0,4.793A6.743,6.743,0,0,1,2.085.124a.455.455,0,0,1,.627,0,.417.417,0,0,1,0,.6A6.032,6.032,0,0,0,1.144,3.275,6.182,6.182,0,0,0,.881,4.982a.412.412,0,0,1-.036.162.425.425,0,0,1-.1.136A.443.443,0,0,1,.6,5.37a.456.456,0,0,1-.337-.005.441.441,0,0,1-.141-.094.424.424,0,0,1-.093-.139A.412.412,0,0,1,0,4.968C0,4.908,0,4.85,0,4.793Z" transform="translate(420 519.021)" fill="#5414b4"/>
    </g>
  </g>
</svg>
