<svg xmlns="http://www.w3.org/2000/svg" xmlns:xlink="http://www.w3.org/1999/xlink" width="24" height="24" viewBox="0 0 24 24">
  <defs>
    <clipPath id="clip-Collapse">
      <rect width="24" height="24"/>
    </clipPath>
  </defs>
  <g id="Collapse" clip-path="url(#clip-Collapse)">
    <g id="Group_7531" data-name="Group 7531" transform="translate(-688.091 -405.75)">
      <path id="Path_14779" data-name="Path 14779" d="M866.592,631.7a.671.671,0,0,1-.667.666.659.659,0,0,1-.471-.2l-1.5-1.5-3.459,3.457a.358.358,0,0,1-.24.1.364.364,0,0,1-.24-.1l-1.187-1.188a.325.325,0,0,1,0-.478L862.287,629l-1.5-1.5a.658.658,0,0,1-.2-.471.671.671,0,0,1,.668-.666h4.666a.671.671,0,0,1,.667.666Z" transform="translate(870.081 1472.994) rotate(-135)"/>
      <path id="Path_14779-2" data-name="Path 14779" d="M866.592,631.7a.671.671,0,0,1-.667.666.659.659,0,0,1-.471-.2l-1.5-1.5-3.459,3.457a.358.358,0,0,1-.24.1.364.364,0,0,1-.24-.1l-1.187-1.188a.325.325,0,0,1,0-.478L862.287,629l-1.5-1.5a.658.658,0,0,1-.2-.471.671.671,0,0,1,.668-.666h4.666a.671.671,0,0,1,.667.666Z" transform="translate(529.347 -638.371) rotate(45)"/>
    </g>
  </g>
</svg>
