<svg xmlns="http://www.w3.org/2000/svg" xmlns:xlink="http://www.w3.org/1999/xlink" width="24" height="24" viewBox="0 0 24 24">
  <defs>
    <clipPath id="clip-Dashboard">
      <rect width="24" height="24"/>
    </clipPath>
  </defs>
  <g id="Dashboard" clip-path="url(#clip-Dashboard)">
    <g id="Dashboard-2" data-name="Dashboard" transform="translate(-2 -1.986)">
      <g id="Group_2036" data-name="Group 2036" transform="translate(2 2)">
        <g id="dashboard-3" data-name="dashboard">
          <path id="Path_708" data-name="Path 708" d="M9.63,8.328H1.822A1.824,1.824,0,0,1,0,6.507V1.822A1.824,1.824,0,0,1,1.822,0H9.63a1.824,1.824,0,0,1,1.822,1.822V6.507A1.824,1.824,0,0,1,9.63,8.328ZM1.822,1.565a.26.26,0,0,0-.26.26V6.507a.26.26,0,0,0,.26.26H9.63a.26.26,0,0,0,.26-.26V1.822a.26.26,0,0,0-.26-.26Z"/>
          <path id="Path_709" data-name="Path 709" d="M9.63,14.575H1.822A1.824,1.824,0,0,1,0,12.753V1.822A1.824,1.824,0,0,1,1.822,0H9.63a1.824,1.824,0,0,1,1.822,1.822V12.753A1.824,1.824,0,0,1,9.63,14.575ZM1.822,1.562a.26.26,0,0,0-.26.26V12.753a.26.26,0,0,0,.26.26H9.63a.26.26,0,0,0,.26-.26V1.822a.26.26,0,0,0-.26-.26Z" transform="translate(0 9.411)"/>
          <path id="Path_710" data-name="Path 710" d="M9.63,8.329H1.822A1.824,1.824,0,0,1,0,6.507V1.822A1.824,1.824,0,0,1,1.822,0H9.63a1.824,1.824,0,0,1,1.822,1.822V6.507A1.824,1.824,0,0,1,9.63,8.329ZM1.822,1.566a.26.26,0,0,0-.26.26V6.511a.26.26,0,0,0,.26.26H9.63a.26.26,0,0,0,.26-.26V1.826a.26.26,0,0,0-.26-.26Z" transform="translate(12.535 15.656)"/>
          <path id="Path_711" data-name="Path 711" d="M9.63,14.575H1.822A1.824,1.824,0,0,1,0,12.753V1.822A1.824,1.824,0,0,1,1.822,0H9.63a1.824,1.824,0,0,1,1.822,1.822V12.753A1.824,1.824,0,0,1,9.63,14.575ZM1.822,1.562a.26.26,0,0,0-.26.26V12.753a.26.26,0,0,0,.26.26H9.63a.26.26,0,0,0,.26-.26V1.822a.26.26,0,0,0-.26-.26Z" transform="translate(12.535)"/>
        </g>
      </g>
    </g>
  </g>
</svg>
