<svg xmlns="http://www.w3.org/2000/svg" xmlns:xlink="http://www.w3.org/1999/xlink" width="24" height="24" viewBox="0 0 24 24">
  <defs>
    <clipPath id="clip-ESX">
      <rect width="24" height="24"/>
    </clipPath>
  </defs>
  <g id="ESX" clip-path="url(#clip-ESX)">
    <path id="Subtract" d="M25.6,24H6.4V0H25.6V24ZM8.6,10.8a1,1,0,0,0-1,1v1.6a1,1,0,0,0,1,1H23.4a1,1,0,0,0,1-1V11.8a1,1,0,0,0-1-1ZM8.6,6a1,1,0,0,0-1,1V8.6a1,1,0,0,0,1,1H23.4a1,1,0,0,0,1-1V7a1,1,0,0,0-1-1Zm0-4.8a1,1,0,0,0-1,1V3.8a1,1,0,0,0,1,1H23.4a1,1,0,0,0,1-1V2.2a1,1,0,0,0-1-1ZM22,13.2H18.4a.6.6,0,0,1,0-1.2H22a.6.6,0,1,1,0,1.2Zm-5.4,0a.6.6,0,1,1,.6-.6A.6.6,0,0,1,16.6,13.2ZM22,8.4H18.4a.6.6,0,0,1,0-1.2H22a.6.6,0,1,1,0,1.2Zm-5.4,0a.6.6,0,1,1,.6-.6A.6.6,0,0,1,16.6,8.4ZM22,3.6H18.4a.6.6,0,1,1,0-1.2H22a.6.6,0,0,1,0,1.2Zm-5.4,0a.6.6,0,1,1,.6-.6A.6.6,0,0,1,16.6,3.6Z" transform="translate(-4.4)"/>
  </g>
</svg>
