<svg xmlns="http://www.w3.org/2000/svg" xmlns:xlink="http://www.w3.org/1999/xlink" width="24" height="24" viewBox="0 0 24 24">
  <defs>
    <clipPath id="clip-Expand-01">
      <rect width="24" height="24"/>
    </clipPath>
  </defs>
  <g id="Expand-01" clip-path="url(#clip-Expand-01)">
    <g id="Group_7536" data-name="Group 7536" transform="translate(-650 -724)">
      <g id="Rectangle_5368" data-name="Rectangle 5368" transform="translate(650 724)" fill="#fff" stroke="#0babdb" stroke-width="1">
        <rect width="24" height="24" rx="4" stroke="none"/>
        <rect x="0.5" y="0.5" width="23" height="23" rx="3.5" fill="none"/>
      </g>
      <g id="Group_7530" data-name="Group 7530" transform="translate(654 728)">
        <g id="Group_2044" data-name="Group 2044" transform="translate(0 0)">
          <path id="Path_699" data-name="Path 699" d="M299.907,7.052l4.571-4.571V4.359a.726.726,0,0,0,1.453,0V.726c0-.024,0-.048,0-.072s0-.021,0-.032,0-.026-.006-.038-.006-.024-.009-.036S305.9.526,305.9.516s-.008-.023-.012-.035-.008-.022-.012-.033-.01-.021-.015-.031-.01-.022-.016-.033l-.017-.029-.019-.032-.023-.031-.019-.026c-.015-.018-.031-.036-.048-.053h0q-.025-.025-.053-.048l-.026-.019-.031-.023L305.576.1l-.029-.017L305.514.07l-.031-.015L305.45.043l-.034-.012-.033-.008-.036-.009-.038-.006-.032,0c-.024,0-.048,0-.072,0h-3.632a.726.726,0,0,0,0,1.453h1.878L298.88,6.024a.726.726,0,0,0,1.027,1.027Z" transform="translate(-290.498 0)" fill="#0babdb"/>
          <path id="Path_700" data-name="Path 700" d="M6.024,298.879l-4.571,4.571v-1.878a.726.726,0,0,0-1.453,0V305.2c0,.024,0,.048,0,.072s0,.021,0,.032,0,.026.006.038.006.024.009.036.005.022.008.033.008.023.012.035.007.022.012.033.01.021.015.031.01.022.016.033l.017.029c.006.011.012.021.019.032s.015.021.023.031l.019.026c.015.018.031.036.048.053h0c.017.017.034.033.053.048l.026.019.031.023.032.019.029.017.033.016.031.015.033.012.035.012.033.008.036.009.038.006.032,0q.036,0,.072,0H4.359a.726.726,0,1,0,0-1.453H2.48l4.571-4.571a.726.726,0,0,0-1.027-1.027Z" transform="translate(0 -290.498)" fill="#0babdb"/>
          <path id="Path_701" data-name="Path 701" d="M305.786,305.639c.008-.01.016-.02.023-.031s.013-.021.019-.032.012-.019.017-.029.011-.022.016-.033.01-.021.015-.031.008-.022.012-.033.008-.023.012-.035.006-.022.008-.033.006-.024.009-.036,0-.026.006-.038,0-.021,0-.032,0-.048,0-.072v-3.632a.726.726,0,0,0-1.453,0v1.878l-4.571-4.571a.726.726,0,0,0-1.027,1.027l4.571,4.571h-1.878a.726.726,0,1,0,0,1.453H305.2c.024,0,.048,0,.072,0l.032,0,.039-.006.036-.009.033-.008.035-.012.033-.012.031-.015.033-.016.029-.017.032-.019.031-.023.026-.019c.018-.015.036-.031.052-.047h0c.017-.017.032-.034.047-.052Z" transform="translate(-290.498 -290.498)" fill="#0babdb"/>
          <path id="Path_702" data-name="Path 702" d="M2.48,1.453H4.359A.726.726,0,0,0,4.359,0H.726C.7,0,.679,0,.655,0l-.032,0L.584.014.549.023.516.031.481.043.448.055.417.07.384.086.355.1.323.122.292.145.266.165a.731.731,0,0,0-.1.1L.145.292.122.323C.115.333.109.344.1.355L.086.384C.08.395.075.406.07.417S.06.438.055.448.047.47.043.481.035.5.031.516.026.538.023.549.016.572.014.585.01.61.008.623,0,.644,0,.655,0,.7,0,.726V4.359a.726.726,0,0,0,1.453,0V2.48L6.024,7.052A.726.726,0,0,0,7.052,6.024Z" transform="translate(0 0)" fill="#0babdb"/>
        </g>
      </g>
    </g>
  </g>
</svg>
