<svg xmlns="http://www.w3.org/2000/svg" xmlns:xlink="http://www.w3.org/1999/xlink" width="24" height="24" viewBox="0 0 24 24">
  <defs>
    <clipPath id="clip-expand">
      <rect width="24" height="24"/>
    </clipPath>
  </defs>
  <g id="expand" clip-path="url(#clip-expand)">
    <path id="Path_14779" data-name="Path 14779" d="M858.349,636.271l-3.458,3.457,1.5,1.5a.659.659,0,0,1,.2.471.672.672,0,0,1-.667.667h-4.665a.671.671,0,0,1-.666-.667v-4.667a.659.659,0,0,1,1.135-.471l1.5,1.5,3.46-3.457a.36.36,0,0,1,.239-.1.367.367,0,0,1,.24.1l1.186,1.188a.326.326,0,0,1,0,.479m8.24-4.571a.671.671,0,0,1-.667.666.659.659,0,0,1-.471-.2l-1.5-1.5-3.459,3.457a.358.358,0,0,1-.24.1.364.364,0,0,1-.24-.1l-1.187-1.188a.325.325,0,0,1,0-.478L862.287,629l-1.5-1.5a.658.658,0,0,1-.2-.471.671.671,0,0,1,.668-.666h4.666a.671.671,0,0,1,.667.666Z" transform="translate(-146.53 -1044.371) rotate(45)"/>
  </g>
</svg>
