<svg xmlns="http://www.w3.org/2000/svg" xmlns:xlink="http://www.w3.org/1999/xlink" width="24" height="24" viewBox="0 0 24 24">
  <defs>
    <clipPath id="clip-Export">
      <rect width="24" height="24"/>
    </clipPath>
  </defs>
  <g id="Export" clip-path="url(#clip-Export)">
    <g id="schedule_black_24dp_2" data-name="schedule_black_24dp 2">
      <path id="Vector" d="M0,0H24V24H0Z" fill="none"/>
    </g>
    <path id="Union_5" data-name="Union 5" d="M1.636,18A1.677,1.677,0,0,1,0,16.286V1.714A1.677,1.677,0,0,1,1.636,0H8.151A1.6,1.6,0,0,1,9.217.413l3.3,2.965a1.753,1.753,0,0,1,.571,1.3V9.429a.819.819,0,1,1-1.636,0V7.714H7.364a.838.838,0,0,1-.818-.857V1.714H2.454a.839.839,0,0,0-.818.857V15.429a.838.838,0,0,0,.818.857h8.182a.838.838,0,0,0,.819-.857V13.715a.819.819,0,1,1,1.636,0v2.571A1.677,1.677,0,0,1,11.455,18ZM8.182,6h3.273V5.075a.875.875,0,0,0-.286-.651l-2.787-2.5a.824.824,0,0,0-.2-.133Zm6.8,8.571a.6.6,0,0,1-.412-.172.583.583,0,0,1-.011-.819l1.42-1.407H9.593A.6.6,0,0,1,9.174,12a.582.582,0,0,1,0-.83A.6.6,0,0,1,9.593,11H16L14.562,9.584a.586.586,0,0,1-.135-.191.585.585,0,0,1,.124-.65.588.588,0,0,1,.2-.129.6.6,0,0,1,.23-.043.593.593,0,0,1,.23.049.583.583,0,0,1,.192.133l2.424,2.4a.586.586,0,0,1,.174.416v.014a.049.049,0,0,1,0,.015.579.579,0,0,1-.045.225.585.585,0,0,1-.129.191L15.4,14.41a.6.6,0,0,1-.41.162Z" transform="translate(3 3)"/>
  </g>
</svg>
