<svg xmlns="http://www.w3.org/2000/svg" xmlns:xlink="http://www.w3.org/1999/xlink" width="24" height="24" viewBox="0 0 24 24">
  <defs>
    <clipPath id="clip-Firewall">
      <rect width="24" height="24"/>
    </clipPath>
  </defs>
  <g id="Firewall" clip-path="url(#clip-Firewall)">
    <path id="Union" d="M24,0H0V2.667H1.333V20a1.333,1.333,0,0,0,1.333,1.333H21.333A1.333,1.333,0,0,0,22.667,20V2.667H24ZM18.133,3.733h-5.6V6.8h5.6Zm-6.667,0V6.8h-5.6V3.733Zm-6.667,0V6.8H2.4V3.733ZM2.4,11.467v-3.6H8.133v3.6Zm0,1.067v3.6H4.8v-3.6ZM2.4,20V17.2H8.133v3.067H2.667A.267.267,0,0,1,2.4,20Zm6.8.267V17.2h5.6v3.067Zm6.667,0V17.2H21.6V20a.267.267,0,0,1-.267.267ZM21.6,12.533v3.6H19.2v-3.6Zm-3.467,0v3.6h-5.6v-3.6Zm-6.667,0v3.6h-5.6v-3.6ZM21.6,11.467v-3.6H15.867v3.6Zm-6.8,0v-3.6H9.2v3.6Zm6.8-7.733V6.8H19.2V3.733Z" transform="translate(0 1)"/>
  </g>
</svg>
