<svg xmlns="http://www.w3.org/2000/svg" xmlns:xlink="http://www.w3.org/1999/xlink" width="24" height="24" viewBox="0 0 24 24">
  <defs>
    <clipPath id="clip-Hamburger_Menu">
      <rect width="24" height="24"/>
    </clipPath>
  </defs>
  <g id="Hamburger_Menu" data-name="Hamburger Menu" clip-path="url(#clip-Hamburger_Menu)">
    <g id="menu_icon_1" data-name="menu_icon 1" transform="translate(3 5)">
      <path id="Path_14508" data-name="Path 14508" d="M2.573,2.229a.327.327,0,0,1-.1.223.334.334,0,0,1-.225.1H.322a.333.333,0,0,1-.225-.1A.326.326,0,0,1,0,2.229V.32A.326.326,0,0,1,.1.1.333.333,0,0,1,.322,0H2.251a.334.334,0,0,1,.225.1.327.327,0,0,1,.1.223Zm0,3.819a.327.327,0,0,1-.1.223.334.334,0,0,1-.225.1H.322a.333.333,0,0,1-.225-.1A.326.326,0,0,1,0,6.049V4.139a.325.325,0,0,1,.1-.223.332.332,0,0,1,.225-.1H2.251a.333.333,0,0,1,.225.1.326.326,0,0,1,.1.223Zm0,3.819a.325.325,0,0,1-.1.222.332.332,0,0,1-.225.1H.322a.332.332,0,0,1-.225-.1A.325.325,0,0,1,0,9.868V7.958a.325.325,0,0,1,.1-.222.332.332,0,0,1,.225-.1H2.251a.333.333,0,0,1,.225.1.326.326,0,0,1,.1.222Zm0,3.819a.326.326,0,0,1-.1.223.333.333,0,0,1-.225.1H.322a.332.332,0,0,1-.225-.1.325.325,0,0,1-.1-.223v-1.91a.325.325,0,0,1,.1-.222.332.332,0,0,1,.225-.1H2.251a.333.333,0,0,1,.225.1.326.326,0,0,1,.1.222ZM18,2.229a.325.325,0,0,1-.1.223.332.332,0,0,1-.225.1H4.175a.333.333,0,0,1-.225-.1.326.326,0,0,1-.1-.223V.32A.326.326,0,0,1,3.95.1.333.333,0,0,1,4.175,0h13.5a.332.332,0,0,1,.225.1A.325.325,0,0,1,18,.32Zm0,3.819a.325.325,0,0,1-.1.223.332.332,0,0,1-.225.1H4.175a.334.334,0,0,1-.225-.1.327.327,0,0,1-.1-.223V4.139a.326.326,0,0,1,.1-.223.333.333,0,0,1,.225-.1h13.5a.332.332,0,0,1,.225.1.325.325,0,0,1,.1.223Zm0,3.819a.324.324,0,0,1-.1.222.331.331,0,0,1-.225.1H4.175a.332.332,0,0,1-.225-.1.325.325,0,0,1-.1-.222V7.958a.326.326,0,0,1,.1-.222.333.333,0,0,1,.225-.1h13.5a.332.332,0,0,1,.224.1.325.325,0,0,1,.1.222Zm0,3.819a.324.324,0,0,1-.1.223.331.331,0,0,1-.225.1H4.175a.333.333,0,0,1-.225-.1.326.326,0,0,1-.1-.223v-1.91a.326.326,0,0,1,.1-.222.333.333,0,0,1,.225-.1h13.5a.332.332,0,0,1,.224.1.325.325,0,0,1,.1.222Z" transform="translate(-0.001 -0.003)"/>
    </g>
  </g>
</svg>
