<svg xmlns="http://www.w3.org/2000/svg" xmlns:xlink="http://www.w3.org/1999/xlink" width="24" height="24" viewBox="0 0 24 24">
  <defs>
    <clipPath id="clip-Inventory">
      <rect width="24" height="24"/>
    </clipPath>
  </defs>
  <g id="Inventory" clip-path="url(#clip-Inventory)">
    <g id="Rectangle_3" data-name="Rectangle 3" fill="#fff" stroke="#5414b4" stroke-width="1">
      <rect width="24" height="24" rx="4" stroke="none"/>
      <rect x="0.5" y="0.5" width="23" height="23" rx="3.5" fill="none"/>
    </g>
    <g id="Group_7388" data-name="Group 7388" transform="translate(-377 -513)">
      <g id="m8msWS.tif" transform="translate(381 517)">
        <g id="Group_2742" data-name="Group 2742">
          <path id="Path_898" data-name="Path 898" d="M0,9.7a.462.462,0,0,1,.185-.181.423.423,0,0,1,.247-.046c.484.008.968,0,1.477,0V5.188c0-.343.1-.454.431-.454H4.8V.465A.791.791,0,0,1,4.835.19C4.9.03,5.029,0,5.182,0Q7.2,0,9.227,0h1.562c.311,0,.411.1.411.435v4.3h2.414c.382,0,.472.094.472.493V9.477h1.5c.3,0,.411.116.411.44,0,.613-.006,1.224,0,1.837a.437.437,0,0,1-.043.254.4.4,0,0,1-.176.177H0ZM9.4.672V2.714c0,.335-.206.48-.5.349-.263-.118-.522-.244-.789-.354a.324.324,0,0,0-.228,0c-.271.111-.535.24-.8.36a.3.3,0,0,1-.35,0,.339.339,0,0,1-.118-.148A.367.367,0,0,1,6.6,2.726V.672H5.447V4.727h5.112V.669ZM2.56,5.42V9.467H7.678V5.42H6.525V7.448c0,.353-.21.5-.519.358-.258-.116-.509-.241-.773-.349a.331.331,0,0,0-.232,0c-.261.107-.516.233-.773.348-.311.141-.514,0-.514-.354V5.6c0-.058,0-.117-.007-.181ZM8.321,9.467h5.131V5.585c0-.137-.036-.183-.167-.176-.208.011-.416,0-.624,0h-.377v.209c0,.606-.013,1.213.005,1.82a.389.389,0,0,1-.023.208.361.361,0,0,1-.126.16.323.323,0,0,1-.375,0c-.251-.132-.509-.244-.772-.352a.309.309,0,0,0-.218,0c-.261.107-.516.233-.774.347-.326.147-.529,0-.53-.373V5.594c0-.058-.006-.116-.009-.175H8.318Zm-7.683.7v1.346H15.363V10.168ZM7.231.672v1.6a1.9,1.9,0,0,0,.295-.129.79.79,0,0,1,.946,0,1.854,1.854,0,0,0,.291.129V.676ZM4.351,5.42v1.6c.2-.092.395-.173.582-.265a.378.378,0,0,1,.358,0c.187.091.379.171.578.26V5.423Zm5.777,0V7.009c.192-.088.371-.16.542-.25a.439.439,0,0,1,.431,0c.177.089.359.165.543.248v-1.6Z" transform="translate(0 3.815)" fill="#5414b4"/>
          <path id="Path_899" data-name="Path 899" d="M2.434,2.3v.383c0,.754.053.747-.743.737H1.057c-.231,0-.327-.1-.328-.33V2.307C.672,2.3.626,2.3.58,2.3a3.089,3.089,0,0,1-.317,0,.263.263,0,0,1-.2-.434Q.707.988,1.36.124a.263.263,0,0,1,.447,0q.648.86,1.288,1.725a.265.265,0,0,1-.211.443A4.431,4.431,0,0,1,2.434,2.3ZM1.9,2.871V2.081c0-.22.1-.319.324-.324.036,0,.072-.006.124-.011L1.58.721.814,1.747c.035.005.052.01.068.01.314.012.38.082.38.4v.714Z" transform="translate(6.419)" fill="#5414b4"/>
          <path id="Path_900" data-name="Path 900" d="M1.77,0H3.263A.267.267,0,1,1,3.28.537c-.044,0-.088,0-.132,0H.306C.114.532,0,.427,0,.266A.28.28,0,0,1,.316,0Z" transform="translate(1.71 14.649)" fill="#5414b4"/>
          <path id="Path_901" data-name="Path 901" d="M1.761.533H.319C.123.533.012.444,0,.293A.265.265,0,0,1,.285,0C.593,0,.9,0,1.21,0H3.233a.283.283,0,0,1,.3.176.257.257,0,0,1-.236.355c-.22.011-.44.005-.661.006Z" transform="translate(10.549 14.655)" fill="#5414b4"/>
          <path id="Path_902" data-name="Path 902" d="M.528.269A.264.264,0,0,1,0,.274.269.269,0,0,1,.262,0,.266.266,0,0,1,.528.269Z" transform="translate(7.459 14.653)" fill="#5414b4"/>
        </g>
      </g>
    </g>
  </g>
</svg>
