<svg xmlns="http://www.w3.org/2000/svg" xmlns:xlink="http://www.w3.org/1999/xlink" width="44" height="44" viewBox="0 0 44 44">
  <defs>
    <clipPath id="clip-Logo">
      <rect width="44" height="44"/>
    </clipPath>
  </defs>
  <g id="Logo" clip-path="url(#clip-Logo)">
    <g id="Group_7625" data-name="Group 7625" transform="translate(-34 179)">
      <g id="BT_logo-2018_2" data-name="BT logo-2018 2" transform="translate(36 -177)">
        <path id="Vector" d="M20.982,13.183h9.962V16.1H27.6V26.787H24.317V16.1H20.982ZM20,37.538A17.538,17.538,0,1,1,37.538,20,17.549,17.549,0,0,1,20,37.538ZM20,40A20,20,0,1,0,0,20,20,20,0,0,0,20,40ZM16.618,22.623a1.349,1.349,0,0,0-1.457-1.442h-2.2v2.837h2.2A1.334,1.334,0,0,0,16.618,22.623Zm-.4-5.46a1.15,1.15,0,0,0-1.242-1.219H12.96V18.42h2.017A1.16,1.16,0,0,0,16.219,17.163Zm3.719,5.621c0,2.577-1.817,4-4.417,4h-5.8v-13.6h5.414c2.623,0,4.4,1.342,4.4,3.8a3.378,3.378,0,0,1-1.3,2.722A3.476,3.476,0,0,1,19.939,22.784Z" fill="#fff"/>
      </g>
    </g>
  </g>
</svg>
