<svg xmlns="http://www.w3.org/2000/svg" width="578.173" height="302.299" viewBox="0 0 578.173 302.299">
  <g id="Group_2678" data-name="Group 2678" transform="translate(-534.131 577.168)">
    <path id="Path_863" data-name="Path 863" d="M982.773-475.95c5,0,9.955-.18,14.892.031,27.821,1.191,53.268,9.5,75.582,26.316,19.627,14.787,33.086,33.818,37.509,58.423,4.067,22.624-.852,43.482-13.38,62.557-12.379,18.847-29.618,31.931-49.965,41.158-19.679,8.924-40.429,12.5-61.932,12.445q-159.9-.394-319.807-.629c-14.5-.008-28.859-.483-42.985-3.832-25.426-6.027-48.1-17.247-65.847-36.841s-25.805-42.521-21.344-69.08c2.994-17.819,11.65-32.776,24.2-45.52,15.924-16.172,35.277-26.5,56.966-32.7a148.218,148.218,0,0,1,36.4-5.639c3.228-.1,4.763-1.271,4.907-3.93.941-17.42,7.6-32.589,18.262-46.137,13.2-16.769,30.2-28.635,49.292-37.691,24.635-11.682,50.716-17.682,77.844-19.448,26.919-1.751,53.444.534,79.453,7.863,20.667,5.824,40.156,14.239,57.568,27.005,16.152,11.84,29.482,26.124,36.887,45.043,2.385,6.1,3.458,12.708,5.13,19.084C982.508-477.042,982.61-476.609,982.773-475.95Zm-14.484,13.9c0-5.205.171-9.716-.052-14.207-.189-3.813-.235-7.795-1.377-11.372-5.024-15.738-15.081-28.027-27.556-38.477-17.955-15.041-38.831-24.32-61.209-30.442a222.38,222.38,0,0,0-84.448-6.159c-23.2,2.628-45.458,8.534-66.339,19.127-17.445,8.849-32.9,20.215-44.16,36.527-8.068,11.689-12.82,24.5-12.379,38.969.119,3.9-.255,7.822-.407,11.85-1.059,0-1.692.036-2.321,0a137.63,137.63,0,0,0-62.826,10.2c-18.142,7.588-33.889,18.512-45.25,34.878-12.4,17.862-16.4,37.375-9.854,58.41,6.272,20.145,19.928,34.5,37.5,45.288,21.022,12.9,44.029,18.793,68.714,18.8q123.906.051,247.811.4c28.88.055,57.761.268,86.642.185a124.6,124.6,0,0,0,49.821-10.46c17.455-7.6,32.487-18.337,43.741-33.836,13.221-18.21,18.111-38.419,12.955-60.531-4.517-19.378-15.819-34.474-31.5-46.217-25.325-18.968-54.158-25.917-85.443-23.764Z" transform="translate(0 0)" fill="#fff" stroke="#fff" stroke-width="0.3"/>
    <path id="Path_864" data-name="Path 864" d="M995.463-412.278l-31.949,17.756,27.8,46.695c4.507-1.757,8.933-2.99,13.744-2.046a21.514,21.514,0,0,1,17.161,17.585,21.142,21.142,0,0,1-12.026,22.178c-7.825,3.811-17.484,1.972-23.917-4.343a6.294,6.294,0,0,0-3.975-1.669c-27.317-.1-54.636-.061-81.955-.107a4.8,4.8,0,0,0-4.518,2.159c-3.643,5.018-8.817,6.869-14.821,5.485a13.686,13.686,0,0,1-10.831-11.261c-1.231-6.06.6-11.366,5.718-15.076A4.164,4.164,0,0,0,877.879-339c-.117-2.444-.028-4.9-.028-7.913-5.091,2.828-9.716,5.4-14.34,7.964-6.588,3.657-13.14,7.384-19.792,10.92a4.036,4.036,0,0,0-2.483,4.471,14.426,14.426,0,0,1-9.3,14.777,14.345,14.345,0,0,1-16.016-4.152c-3.235-3.742-3.93-8.172-3.294-13.125-4.835-1.635-9.59-3.266-14.36-4.855q-44.665-14.889-89.334-29.765c-3.609-1.2-3.6-1.206-5.029,2.366-3.509,8.784-7.078,17.545-10.471,26.374a7.407,7.407,0,0,0-.177,4.415c2.006,6.947-.414,13.919-6.328,17.569A14.222,14.222,0,0,1,669.418-312c-4.881-4.7-5.761-12.31-2.3-18.554a3.605,3.605,0,0,0,.238-3.052c-8.18-11.888-16.481-23.691-24.763-35.509-.1-.134-.283-.2-.646-.453-5.057,6.64-11.688,10.1-20.211,9.2a19.541,19.541,0,0,1-12.97-6.579c-7.669-8.656-7.23-21.692.772-29.112,8.222-7.622,22.9-8.931,32.593,3.664,1.759-1.228,3.549-2.452,5.312-3.712q35.683-25.48,71.4-50.907c2.009-1.423,1.605-3.005,1.506-4.774-.329-5.837,1.93-10.468,6.853-13.53a13.452,13.452,0,0,1,15.1.041c1.969,1.241,3.528,3.13,5.556,4.983,4.543-2.347,9.414-4.865,14.29-7.377,12.576-6.477,25.138-12.984,37.752-19.387,1.768-.9,2.456-1.777,2.3-3.93-.92-13.012,6.78-24.147,18.569-27.2,14.873-3.847,29.769,7.131,30.811,22.894.156,2.349.9,2.992,3.072,3.408,15.238,2.912,30.444,5.991,45.664,9a11.224,11.224,0,0,0,1.888.013c.425-5.065,2.2-9.633,6.761-12.2a18.039,18.039,0,0,1,8.292-2.411c6.758-.051,12.381,5.046,13.8,11.715,1.592,7.45-1.929,13.193-11.2,17.923q2.376,4.007,4.738,7.987c6.158,10.343,12.348,20.666,18.449,31.043a3.942,3.942,0,0,0,3.9,2.279c15.085-.088,30.17-.062,45.255-.02a3.629,3.629,0,0,0,3.6-1.777,14.093,14.093,0,0,1,15.807-6.193,14.61,14.61,0,0,1,10.7,13.544,14.759,14.759,0,0,1-9.225,14.622c-5.943,2.3-12.339.5-16.588-4.656C996.224-411.365,995.932-411.714,995.463-412.278ZM802.89-486.222a3.521,3.521,0,0,0-.955.143q-26.1,13.416-52.156,26.927c-.623.325-.915,1.675-.993,2.58-.274,3.149.251,6.535-.757,9.4a5.221,5.221,0,0,0,.836,5.586q29.494,41.276,58.91,82.611c3.649,5.118,7.329,10.212,10.994,15.318l.555-.176v-2.654q0-58.765.008-117.531c0-.92-.075-1.846,0-2.757a2.667,2.667,0,0,0-1.928-3.113,28.748,28.748,0,0,1-5.626-3.411C807.332-476.551,804.811-481.208,802.89-486.222ZM841.321-328.7c11.33-6.3,23.381-12.964,35.36-19.754A3.627,3.627,0,0,0,877.8-351.2c.07-17.836.046-35.672.08-53.508a3.631,3.631,0,0,0-1.78-3.345,14.141,14.141,0,0,1-6.217-11.421c-.253-6.082,2.528-10.543,7.7-14.04C866.3-447.312,855.1-461,844.147-474.376c-3.308,1.829-6.216,3.826-9.418,5.068-2.071.8-2.507,1.761-2.5,3.752q.078,62.747.047,125.5a13.845,13.845,0,0,0,.048,2.475,2.993,2.993,0,0,0,.859,1.556C835.751-333.652,838.379-331.335,841.321-328.7ZM735.747-437.873c-10.051,25.133-19.848,49.63-29.73,74.337l106.99,35.654.609-.764Zm226.191,44.237c-3.968,2.2-7.579,4.2-11.19,6.208-19.044,10.569-38.065,21.176-57.157,31.655-2.163,1.187-3,2.5-2.847,4.945a95.605,95.605,0,0,1,.006,10.756c-.132,2.5.35,4.348,2.69,5.708a8.7,8.7,0,0,1,2.92,3.227,3.666,3.666,0,0,0,3.714,2.091q38.769-.084,77.541-.024a17.323,17.323,0,0,0,1.965-.156c1.257-3.692,1.935-7.1,3.536-9.993s4.126-5.268,6.409-8.073Q975.967-370.074,961.938-393.636Zm-20.158-33.106a3.953,3.953,0,0,0-.158-.911q-11.612-19.558-23.286-39.079a3.179,3.179,0,0,0-2.178-1.183c-6.809-.651-11.186-4.29-13.182-10.729a3.1,3.1,0,0,0-2.73-2.5c-12.17-2.354-24.324-4.78-36.486-7.169-4.008-.788-8.025-1.532-11.309-2.157-2.345,5.179-4.474,9.88-6.823,15.071-.232-.557-.2-.363-.09-.231q16.477,20.193,33.02,40.332a3.258,3.258,0,0,0,2.549.547c6.3-.923,11.524.86,15.152,6.191a3.93,3.93,0,0,0,3.754,2.016c13.153-.055,26.308-.026,39.461-.034C940.182-426.576,940.888-426.675,941.781-426.742Zm-220.622-19.8-78.112,55.8a33.414,33.414,0,0,0,1.683,4.873,5.533,5.533,0,0,0,2.524,2.665c12.42,4.256,24.891,8.362,37.35,12.5,3.011,1,6.026,1.99,9.129,3.014.541-1.275.949-2.191,1.32-3.12,9.152-22.849,18.236-45.726,27.524-68.519C723.766-442.246,723.406-444.295,721.158-446.54Zm239.837,51.347c-3.438-5.785-6.688-11.11-9.774-16.528a3.923,3.923,0,0,0-3.978-2.14q-23.019.1-46.037,0c-2.328-.01-4.238.056-5.408,2.6a8.032,8.032,0,0,1-3.074,3.077,3.864,3.864,0,0,0-1.955,3.814c.067,14.978.038,29.957.037,44.934v3.239ZM693.1-365.939l-47.377-15.786c-.713,2.959-1.479,5.69-1.984,8.469a4.656,4.656,0,0,0,.464,3.155c4.591,6.759,9.314,13.429,14,20.121,3.78,5.4,7.567,10.788,11.43,16.3a16.168,16.168,0,0,1,10.832-3.855,2.36,2.36,0,0,0,1.746-1.24C685.844-347.684,689.387-356.625,693.1-365.939Zm300.223-47.235-.187-.4H952.171c3.6,6.041,7,11.733,10.437,17.5Z" transform="translate(-5.522 -4.648)" fill="#fff" stroke="#fff" stroke-width="0.3"/>
  </g>
</svg>
