<svg xmlns="http://www.w3.org/2000/svg" xmlns:xlink="http://www.w3.org/1999/xlink" width="24" height="24" viewBox="0 0 24 24">
  <defs>
    <clipPath id="clip-Network">
      <rect width="24" height="24"/>
    </clipPath>
  </defs>
  <g id="Network" clip-path="url(#clip-Network)">
    <path id="Union_7" data-name="Union 7" d="M9.913,21.319A2.7,2.7,0,0,1,12.082,18.7V14.3h1.044v4.38a2.687,2.687,0,1,1-3.212,2.641Zm1.043,0a1.7,1.7,0,1,0,1.7-1.659h-.01A1.677,1.677,0,0,0,10.956,21.319ZM0,20.426a2.581,2.581,0,0,1,2.609-2.553,2.636,2.636,0,0,1,1.528.483l5.794-5.317a3.39,3.39,0,0,1-.21-4.1L6.133,5.222a1.591,1.591,0,0,1-.654.14A1.532,1.532,0,1,1,7.044,3.83a1.5,1.5,0,0,1-.162.68l3.543,3.672a3.583,3.583,0,0,1,4.333-.094l4.45-4.138a2.5,2.5,0,0,1-.424-1.4,2.609,2.609,0,0,1,5.217,0,2.581,2.581,0,0,1-2.609,2.553,2.637,2.637,0,0,1-1.45-.431L15.492,8.813a3.39,3.39,0,0,1-.012,4.092l3.4,3.437a1.849,1.849,0,0,1,.944-.256A1.788,1.788,0,1,1,18,17.872a1.752,1.752,0,0,1,.179-.774l-3.438-3.473a3.586,3.586,0,0,1-4.034.1L4.843,19.107a2.5,2.5,0,0,1,.374,1.318,2.581,2.581,0,0,1-2.608,2.553A2.582,2.582,0,0,1,0,20.426Zm19.044-2.553a.783.783,0,1,0,.783-.766A.774.774,0,0,0,19.044,17.872Zm-8.87-7.021a2.479,2.479,0,1,0,2.478-2.425A2.452,2.452,0,0,0,10.174,10.851ZM4.7,3.83a.774.774,0,0,0,.783.766.791.791,0,0,0,.316-.065l.381-.352a.747.747,0,0,0,.086-.348.783.783,0,0,0-1.565,0Z"/>
  </g>
</svg>
