<svg xmlns="http://www.w3.org/2000/svg" xmlns:xlink="http://www.w3.org/1999/xlink" width="24" height="24" viewBox="0 0 24 24">
  <defs>
    <clipPath id="clip-Network-01">
      <rect width="24" height="24"/>
    </clipPath>
  </defs>
  <g id="Network-01" clip-path="url(#clip-Network-01)">
    <g id="Ellipse_54" data-name="Ellipse 54" fill="none" stroke="#000" stroke-width="1">
      <circle cx="12" cy="12" r="12" stroke="none"/>
      <circle cx="12" cy="12" r="11.5" fill="none"/>
    </g>
    <g id="Group_7643" data-name="Group 7643" transform="translate(-1227.764 -259)">
      <path id="Union" d="M14.356,1.527A1.544,1.544,0,0,1,12.8,3.054a1.577,1.577,0,0,1-.867-.257L9.267,5.271A2.027,2.027,0,0,1,9.26,7.719l2.035,2.056a1.105,1.105,0,0,1,.564-.154,1.069,1.069,0,1,1-1.092,1.069,1.046,1.046,0,0,1,.107-.463L8.818,8.15a2.145,2.145,0,0,1-2.413.06L2.9,11.429a1.5,1.5,0,0,1,.224.789,1.544,1.544,0,0,1-1.56,1.527,1.528,1.528,0,1,1,0-3.054,1.576,1.576,0,0,1,.914.289L5.94,7.8a2.027,2.027,0,0,1-.126-2.452L3.668,3.123a.95.95,0,0,1-.392.084.917.917,0,1,1,.936-.916.9.9,0,0,1-.1.407l2.119,2.2a2.143,2.143,0,0,1,2.592-.056l2.662-2.475a1.5,1.5,0,0,1-.254-.835,1.561,1.561,0,0,1,3.121,0Zm-.624,0a.936.936,0,0,1-1.873,0,.936.936,0,0,1,1.873,0ZM3.694,2.5a.448.448,0,0,0,.051-.209.468.468,0,1,0-.468.458.475.475,0,0,0,.189-.039ZM7.568,7.941A1.451,1.451,0,1,0,6.086,6.491,1.467,1.467,0,0,0,7.568,7.941Zm4.291,3.207a.458.458,0,1,0-.468-.458A.463.463,0,0,0,11.859,11.149ZM2.5,12.218a.926.926,0,0,1-.936.916.917.917,0,1,1,0-1.833A.926.926,0,0,1,2.5,12.218Z" transform="translate(1232.764 264)"/>
      <path id="Union-2" data-name="Union" d="M25.713,36.935v-2.62h-.624v2.631a1.64,1.64,0,1,0,.624-.011Zm-.283.587h0a1.015,1.015,0,1,1-.006,0Z" transform="translate(1214.902 238.238)"/>
    </g>
  </g>
</svg>
