<svg xmlns="http://www.w3.org/2000/svg" xmlns:xlink="http://www.w3.org/1999/xlink" width="24" height="24" viewBox="0 0 24 24">
  <defs>
    <clipPath id="clip-path">
      <rect width="24" height="24"/>
    </clipPath>
  </defs>
  <g id="path" clip-path="url(#clip-path)">
    <g id="schedule_black_24dp_2" data-name="schedule_black_24dp 2">
      <path id="Vector" d="M0,0H24V24H0Z" fill="none"/>
    </g>
    <path id="Union" d="M9.5,6A3,3,0,1,0,6.663,2.022.916.916,0,0,0,6.462,2H4.233A4.4,4.4,0,0,0,0,6.559a4.4,4.4,0,0,0,4.233,4.559h7.534a2.252,2.252,0,0,1,2.156,2.323,2.253,2.253,0,0,1-2.156,2.323H6.309l-.074,0A3,3,0,1,0,6.329,18h5.438A4.4,4.4,0,0,0,16,13.441a4.4,4.4,0,0,0-4.233-4.559H4.233A2.252,2.252,0,0,1,2.077,6.559,2.235,2.235,0,0,1,4.233,4.237H6.462a.971.971,0,0,0,.285-.043A3,3,0,0,0,9.5,6Zm0-1.6A1.4,1.4,0,0,0,10.9,3L9.817,1.636,9.5,1.6a1.4,1.4,0,0,0,0,2.8ZM4.9,17a1.4,1.4,0,1,1-1.4-1.4A1.4,1.4,0,0,1,4.9,17Z" transform="translate(4 2)"/>
  </g>
</svg>
