<svg xmlns="http://www.w3.org/2000/svg" xmlns:xlink="http://www.w3.org/1999/xlink" width="24" height="24" viewBox="0 0 24 24">
  <defs>
    <clipPath id="clip-PDF">
      <rect width="24" height="24"/>
    </clipPath>
  </defs>
  <g id="PDF" clip-path="url(#clip-PDF)">
    <path id="Union_4" data-name="Union 4" d="M1.99,20A2,2,0,0,1,0,18L.01,2A2,2,0,0,1,2,0h8l6,6V18a2.006,2.006,0,0,1-2,2ZM2,18H14V7H9V2H2Zm1.1-1.055-.009-.008a.881.881,0,0,1-.283-.774v0a1.406,1.406,0,0,1,.606-.844,6.2,6.2,0,0,1,1.07-.608,8.821,8.821,0,0,1,1.039-.45,15.6,15.6,0,0,0,1.6-3.778,4.139,4.139,0,0,1-.478-1.23,1.338,1.338,0,0,1,.161-1l0,0A1.014,1.014,0,0,1,7.638,7.8a.949.949,0,0,1,.6.228,1.5,1.5,0,0,1,.436,1.209.313.313,0,0,1-.018.1l0,.015a.094.094,0,0,0,0,.014c0,.006,0,.014-.005.022s-.008.037-.015.063c-.013.052-.031.125-.055.217-.044.167-.105.4-.182.667a15.664,15.664,0,0,0,2.545,2.945,4.358,4.358,0,0,1,1.715.363,1.084,1.084,0,0,1,.348.272.84.84,0,0,1,.128.221.821.821,0,0,1,.065.423,1,1,0,0,1-.273.56.815.815,0,0,1-.638.274,1.315,1.315,0,0,1-.57-.137,5.422,5.422,0,0,1-1.231-.829c-.11-.006-.208-.009-.29-.009a1.24,1.24,0,0,0-.185.009l-.009,0H9.99a17.13,17.13,0,0,0-3.73.814l-.175.216-.086.1a8.925,8.925,0,0,1-1.067,1.11,1.912,1.912,0,0,1-1.156.525A.984.984,0,0,1,3.1,16.945ZM3.775,17c.661,0,1.392-.756,2.071-1.563l.087-.1.209-.258a17.359,17.359,0,0,1,3.829-.842,3.224,3.224,0,0,1,.592,0c1.131.962,1.584.962,1.723.962a.619.619,0,0,0,.488-.206.685.685,0,0,0,.174-.773A.613.613,0,0,0,12.8,14a.611.611,0,0,1,.142.222.685.685,0,0,1-.174.773.616.616,0,0,1-.488.206c-.139,0-.591,0-1.723-.962a3.224,3.224,0,0,0-.592,0,17.359,17.359,0,0,0-3.829.841l-.209.258-.087.1C5.166,16.244,4.435,17,3.774,17a.778.778,0,0,1-.5-.173A.781.781,0,0,0,3.775,17Zm2.993-2.921h0c.042-.08.084-.161.124-.244A18.823,18.823,0,0,0,7.8,11.565c.027-.077.052-.155.078-.232h0A18.589,18.589,0,0,1,6.767,14.081Zm.382-.316a15.884,15.884,0,0,1,2.16-.423,18.246,18.246,0,0,1-1.36-1.583A19.191,19.191,0,0,1,7.15,13.765Zm3.535-.441-.079-.074Zm-.149-.138-.062-.059Zm-.309-.3-.005-.005ZM8.473,9.237a.154.154,0,0,1-.008.043.117.117,0,0,0-.009.042c0,.017-.1.429-.279,1.048a15.368,15.368,0,0,0,1.977,2.441,15.358,15.358,0,0,1-1.976-2.44c.175-.618.279-1.03.279-1.048a.117.117,0,0,1,.009-.042.154.154,0,0,0,.008-.043A1.339,1.339,0,0,0,8.132,8.2,1.338,1.338,0,0,1,8.473,9.237Z" transform="translate(4 2)"/>
  </g>
</svg>
