<svg xmlns="http://www.w3.org/2000/svg" xmlns:xlink="http://www.w3.org/1999/xlink" width="24" height="24" viewBox="0 0 24 24">
  <defs>
    <clipPath id="clip-Right">
      <rect width="24" height="24"/>
    </clipPath>
  </defs>
  <g id="Right" clip-path="url(#clip-Right)">
    <g id="Group_7535" data-name="Group 7535" transform="translate(-577 -753)">
      <g id="Rectangle_5370" data-name="Rectangle 5370" transform="translate(577 753)" fill="#fff" stroke="#0babdb" stroke-width="1">
        <rect width="24" height="24" rx="4" stroke="none"/>
        <rect x="0.5" y="0.5" width="23" height="23" rx="3.5" fill="none"/>
      </g>
      <path id="Path_14491" data-name="Path 14491" d="M73.342,941.628a1.462,1.462,0,0,0,1.461,1.461h8.3l-2.244,2.244a1.464,1.464,0,1,0,2.067,2.066l4.687-4.688a1.511,1.511,0,0,0,.069-2.135c-.016-.014-.032-.024-.047-.037s-.033-.045-.054-.066l-4.624-4.624a1.463,1.463,0,1,0-2.067,2.066l2.252,2.253H74.8A1.461,1.461,0,0,0,73.342,941.628Z" transform="translate(508.658 -176.382)" fill="#0babdb"/>
    </g>
  </g>
</svg>
