<svg xmlns="http://www.w3.org/2000/svg" xmlns:xlink="http://www.w3.org/1999/xlink" width="24" height="24" viewBox="0 0 24 24">
  <defs>
    <clipPath id="clip-Storage">
      <rect width="24" height="24"/>
    </clipPath>
  </defs>
  <g id="Storage" clip-path="url(#clip-Storage)">
    <path id="Union_6" data-name="Union 6" d="M13.542,23.181c-1.089-.505-1.839-1.246-1.839-2.141V12.265a.563.563,0,0,1,.009-.09c-.005-.051-.008-.1-.009-.153h0c0-.9.75-1.637,1.839-2.143a10.517,10.517,0,0,1,4.31-.819,10.517,10.517,0,0,1,4.31.819C23.25,10.382,24,11.122,24,12.018v0c0,.051,0,.1-.009.153a.563.563,0,0,1,.009.09v8.776c0,.9-.75,1.637-1.839,2.143a10.517,10.517,0,0,1-4.31.819A10.517,10.517,0,0,1,13.542,23.181Zm-.7-2.143a.848.848,0,0,0,.321.58,3.419,3.419,0,0,0,1.011.616,9.7,9.7,0,0,0,3.677.641,9.7,9.7,0,0,0,3.677-.641,3.419,3.419,0,0,0,1.011-.616.848.848,0,0,0,.321-.58V19.771a9.377,9.377,0,0,1-5.008,1.208,9.377,9.377,0,0,1-5.008-1.208Zm0-3.018a.848.848,0,0,0,.321.58,3.419,3.419,0,0,0,1.011.615,9.7,9.7,0,0,0,3.677.641,9.7,9.7,0,0,0,3.677-.641,3.419,3.419,0,0,0,1.011-.615.848.848,0,0,0,.321-.58V16.753a9.373,9.373,0,0,1-5.008,1.209,9.373,9.373,0,0,1-5.008-1.209Zm0-3.02a.851.851,0,0,0,.321.583,3.4,3.4,0,0,0,1.011.616,9.7,9.7,0,0,0,3.677.639,9.7,9.7,0,0,0,3.677-.641,3.419,3.419,0,0,0,1.011-.615A.848.848,0,0,0,22.86,15V13.771a9.373,9.373,0,0,1-5.008,1.209,9.373,9.373,0,0,1-5.008-1.209Zm1.332-4.176a3.419,3.419,0,0,0-1.011.615.848.848,0,0,0-.321.58.847.847,0,0,0,.321.58,3.4,3.4,0,0,0,1.011.615,9.688,9.688,0,0,0,3.677.641,9.688,9.688,0,0,0,3.677-.641,3.4,3.4,0,0,0,1.011-.615.847.847,0,0,0,.321-.58.848.848,0,0,0-.321-.58,3.419,3.419,0,0,0-1.011-.615,9.7,9.7,0,0,0-3.677-.641A9.7,9.7,0,0,0,14.175,10.824ZM5.124,23.306v-.827h-3.8A1.322,1.322,0,0,1,0,21.157V1.322A1.322,1.322,0,0,1,1.322,0H19.835a1.322,1.322,0,0,1,1.322,1.322V7.934a.661.661,0,1,1-1.322,0V7.6H1.322v5.62h8.76a.5.5,0,1,1,0,.991H1.322V20.5a.661.661,0,0,0,.661.661H9.918a.661.661,0,0,1,0,1.322h-3.8v.827a.5.5,0,1,1-.991,0Zm1.488-5.455a.661.661,0,1,1,.661.661A.661.661,0,0,1,6.612,17.851Zm-3.306,0a.661.661,0,1,1,.661.661A.661.661,0,0,1,3.306,17.851Zm3.306-7.273a.661.661,0,1,1,.661.661A.661.661,0,0,1,6.612,10.578Zm-3.306,0a.661.661,0,1,1,.661.661A.661.661,0,0,1,3.306,10.578Z"/>
  </g>
</svg>
