<svg xmlns="http://www.w3.org/2000/svg" xmlns:xlink="http://www.w3.org/1999/xlink" width="24" height="24" viewBox="0 0 24 24">
  <defs>
    <clipPath id="clip-Stotage-01">
      <rect width="24" height="24"/>
    </clipPath>
  </defs>
  <g id="Stotage-01" clip-path="url(#clip-Stotage-01)">
    <g id="Ellipse_54" data-name="Ellipse 54" fill="none" stroke="#000" stroke-width="1">
      <circle cx="12" cy="12" r="12" stroke="none"/>
      <circle cx="12" cy="12" r="11.5" fill="none"/>
    </g>
    <g id="Group_7642" data-name="Group 7642" transform="translate(-968.184 -259)">
      <path id="Union" d="M8.4,8.8A.4.4,0,1,0,8,8.4.4.4,0,0,0,8.4,8.8Z" transform="translate(967.185 258.001)"/>
      <path id="Union-2" data-name="Union" d="M16.8,8.4a.4.4,0,1,1-.4-.4A.4.4,0,0,1,16.8,8.4Z" transform="translate(961.186 258.001)"/>
      <path id="Union-3" data-name="Union" d="M12.007,4.6v.2a.4.4,0,0,0,.8,0V.8a.8.8,0,0,0-.8-.8H.8A.8.8,0,0,0,0,.8V12.808a.8.8,0,0,0,.8.8H3.1v.5a.3.3,0,0,0,.6,0v-.5H6a.4.4,0,1,0,0-.8H1.2a.4.4,0,0,1-.4-.4v-3.8H6.1a.3.3,0,1,0,0-.6H.8V4.6ZM1.2.8a.4.4,0,0,0-.4.4V4H12.007V1.2a.4.4,0,0,0-.4-.4Z" transform="translate(973.184 264)"/>
      <path id="Union-4" data-name="Union" d="M28.32,23.713h0q0,.046.005.093a.336.336,0,0,0-.005.055v5.312c0,.542.454.99,1.113,1.3a7.115,7.115,0,0,0,5.218,0c.659-.306,1.113-.754,1.113-1.3V23.86a.337.337,0,0,0-.005-.055q0-.046.005-.093h0c0-.542-.454-.99-1.113-1.3a7.115,7.115,0,0,0-5.218,0C28.774,22.722,28.32,23.17,28.32,23.713Zm3.722,3.6a5.675,5.675,0,0,0,3.032-.732v.767a.513.513,0,0,1-.194.351,2.066,2.066,0,0,1-.612.373,6.577,6.577,0,0,1-4.451,0A2.066,2.066,0,0,1,29.2,27.7a.513.513,0,0,1-.194-.351v-.767A5.675,5.675,0,0,0,32.042,27.31Zm3.032-1.792a.513.513,0,0,1-.194.351,2.066,2.066,0,0,1-.612.373,6.586,6.586,0,0,1-4.451,0,2.057,2.057,0,0,1-.612-.373.515.515,0,0,1-.194-.353v-.744a5.675,5.675,0,0,0,3.032.732,5.675,5.675,0,0,0,3.032-.732ZM32.042,22.6a5.867,5.867,0,0,1,2.226.388,2.066,2.066,0,0,1,.612.373.415.415,0,0,1,0,.7,2.066,2.066,0,0,1-.612.373,6.577,6.577,0,0,1-4.451,0,2.066,2.066,0,0,1-.612-.373.415.415,0,0,1,0-.7,2.066,2.066,0,0,1,.612-.373A5.867,5.867,0,0,1,32.042,22.6Zm0,7.683a5.867,5.867,0,0,1-2.226-.388,2.066,2.066,0,0,1-.612-.373.513.513,0,0,1-.194-.351v-.767a5.675,5.675,0,0,0,3.032.732,5.675,5.675,0,0,0,3.032-.732v.767a.513.513,0,0,1-.194.351,2.066,2.066,0,0,1-.612.373A5.867,5.867,0,0,1,32.042,30.284Z" transform="translate(951.948 247.563)"/>
      <path id="Union-5" data-name="Union" d="M8.8,24.4a.4.4,0,1,1-.4-.4A.4.4,0,0,1,8.8,24.4Z" transform="translate(967.185 246.004)"/>
      <path id="Union-6" data-name="Union" d="M8.4,42.4A.4.4,0,1,0,8,42,.4.4,0,0,0,8.4,42.4Z" transform="translate(967.185 232.806)"/>
      <path id="Union-7" data-name="Union" d="M16.4,24.8a.4.4,0,1,0-.4-.4A.4.4,0,0,0,16.4,24.8Z" transform="translate(961.186 246.004)"/>
      <path id="Union-8" data-name="Union" d="M16.8,42a.4.4,0,1,1-.4-.4A.4.4,0,0,1,16.8,42Z" transform="translate(961.186 232.806)"/>
      <path id="Union-9" data-name="Union" d="M30.6,31.607v1.007a.4.4,0,0,0,0,.045m0-2.857v.984q0,.015,0,.03m0-1.869q0,.018,0,.035a.4.4,0,0,0,0,.042" transform="translate(950.238 242.294)"/>
    </g>
  </g>
</svg>
