<svg xmlns="http://www.w3.org/2000/svg" xmlns:xlink="http://www.w3.org/1999/xlink" width="24" height="24" viewBox="0 0 24 24">
  <defs>
    <clipPath id="clip-Topology">
      <rect width="24" height="24"/>
    </clipPath>
  </defs>
  <g id="Topology" clip-path="url(#clip-Topology)">
    <g id="schedule_black_24dp_2" data-name="schedule_black_24dp 2">
      <path id="Vector" d="M0,0H24V24H0Z" fill="none"/>
    </g>
    <path id="Union_1" data-name="Union 1" d="M14,20a2,2,0,0,1-2-2V14a2,2,0,0,1,2-2h1.166V10.914H4.75V12H6a2,2,0,0,1,2,2v4a2,2,0,0,1-2,2H2a2,2,0,0,1-2-2V14a2,2,0,0,1,2-2H3.25V10.164A.75.75,0,0,1,4,9.414H9.25V8H8A2,2,0,0,1,6,6V2A2,2,0,0,1,8,0h4a2,2,0,0,1,2,2V6a2,2,0,0,1-2,2H10.75V9.414h5.168a.75.75,0,0,1,.75.75V12H18a2,2,0,0,1,2,2v4a2,2,0,0,1-2,2Zm-.5-6v4a.5.5,0,0,0,.5.5h4a.5.5,0,0,0,.5-.5V14a.5.5,0,0,0-.5-.5H14A.5.5,0,0,0,13.5,14Zm-12,0v4a.5.5,0,0,0,.5.5H6a.5.5,0,0,0,.5-.5V14a.5.5,0,0,0-.5-.5H2A.5.5,0,0,0,1.5,14Zm6-12V6a.5.5,0,0,0,.5.5h4a.5.5,0,0,0,.5-.5V2a.5.5,0,0,0-.5-.5H8A.5.5,0,0,0,7.5,2Z" transform="translate(2 2)"/>
  </g>
</svg>
