<svg xmlns="http://www.w3.org/2000/svg" xmlns:xlink="http://www.w3.org/1999/xlink" width="24" height="24" viewBox="0 0 24 24">
  <defs>
    <clipPath id="clip-Traffic">
      <rect width="24" height="24"/>
    </clipPath>
  </defs>
  <g id="Traffic" clip-path="url(#clip-Traffic)">
    <g id="Rectangle_3" data-name="Rectangle 3" fill="#fff" stroke="#5414b4" stroke-width="1">
      <rect width="24" height="24" rx="4" stroke="none"/>
      <rect x="0.5" y="0.5" width="23" height="23" rx="3.5" fill="none"/>
    </g>
    <g id="Group_7390" data-name="Group 7390" transform="translate(-495 -512)">
      <g id="Rectangle_338_Stroke_" data-name="Rectangle 338 (Stroke)" transform="translate(499 520)" fill="none">
        <path d="M15.5.571H.5V7.429h15ZM.5,0A.539.539,0,0,0,0,.571V7.429A.539.539,0,0,0,.5,8h15a.539.539,0,0,0,.5-.571V.571A.539.539,0,0,0,15.5,0Z" stroke="none"/>
        <path d="M 0.5 0 L 15.5 0 C 15.7761402130127 0 16 0.2558398246765137 16 0.5714302062988281 L 16 7.428569793701172 C 16 7.744160175323486 15.7761402130127 8 15.5 8 L 0.5 8 C 0.2238597869873047 8 0 7.744160175323486 0 7.428569793701172 L 0 0.5714302062988281 C 0 0.2558398246765137 0.2238597869873047 0 0.5 0 Z M 15.5 7.428569793701172 L 15.5 0.5714302062988281 L 0.5 0.5714302062988281 L 0.5 7.428569793701172 L 15.5 7.428569793701172 Z" stroke="none" fill="#5414b4"/>
      </g>
      <g id="Rectangle_339_Stroke_" data-name="Rectangle 339 (Stroke)" transform="translate(500.722 522.852)" fill="none">
        <path d="M.574.574V1.722H1.722V.574ZM.287,0A.287.287,0,0,0,0,.287V2.009A.287.287,0,0,0,.287,2.3H2.009A.287.287,0,0,0,2.3,2.009V.287A.287.287,0,0,0,2.009,0Z" stroke="none"/>
        <path d="M 0.2869584560394287 -1.430511474609375e-06 L 2.008678436279297 -1.430511474609375e-06 C 2.167158603668213 -1.430511474609375e-06 2.295638561248779 0.1284785270690918 2.295638561248779 0.2869584560394287 L 2.295638561248779 2.008678436279297 C 2.295638561248779 2.167158603668213 2.167158603668213 2.295638561248779 2.008678436279297 2.295638561248779 L 0.2869584560394287 2.295638561248779 C 0.1284785270690918 2.295638561248779 -1.430511474609375e-06 2.167158603668213 -1.430511474609375e-06 2.008678436279297 L -1.430511474609375e-06 0.2869584560394287 C -1.430511474609375e-06 0.1284785270690918 0.1284785270690918 -1.430511474609375e-06 0.2869584560394287 -1.430511474609375e-06 Z M 1.721728563308716 1.721728563308716 L 1.721728563308716 0.5739085674285889 L 0.5739085674285889 0.5739085674285889 L 0.5739085674285889 1.721728563308716 L 1.721728563308716 1.721728563308716 Z" stroke="none" fill="#5414b4"/>
      </g>
      <g id="Rectangle_340_Stroke_" data-name="Rectangle 340 (Stroke)" transform="translate(504.14 522.852)" fill="none">
        <path d="M.574.574V1.722H1.722V.574ZM.287,0A.287.287,0,0,0,0,.287V2.009A.287.287,0,0,0,.287,2.3H2.009A.287.287,0,0,0,2.3,2.009V.287A.287.287,0,0,0,2.009,0Z" stroke="none"/>
        <path d="M 0.2869584560394287 -1.430511474609375e-06 L 2.008678436279297 -1.430511474609375e-06 C 2.167158603668213 -1.430511474609375e-06 2.295638561248779 0.1284785270690918 2.295638561248779 0.2869584560394287 L 2.295638561248779 2.008678436279297 C 2.295638561248779 2.167158603668213 2.167158603668213 2.295638561248779 2.008678436279297 2.295638561248779 L 0.2869584560394287 2.295638561248779 C 0.1284785270690918 2.295638561248779 -1.430511474609375e-06 2.167158603668213 -1.430511474609375e-06 2.008678436279297 L -1.430511474609375e-06 0.2869584560394287 C -1.430511474609375e-06 0.1284785270690918 0.1284785270690918 -1.430511474609375e-06 0.2869584560394287 -1.430511474609375e-06 Z M 1.721728563308716 1.721728563308716 L 1.721728563308716 0.5739085674285889 L 0.5739085674285889 0.5739085674285889 L 0.5739085674285889 1.721728563308716 L 1.721728563308716 1.721728563308716 Z" stroke="none" fill="#5414b4"/>
      </g>
      <g id="Rectangle_341_Stroke_" data-name="Rectangle 341 (Stroke)" transform="translate(507.565 522.852)" fill="none">
        <path d="M.574.574V1.722H1.722V.574ZM.287,0A.287.287,0,0,0,0,.287V2.009A.287.287,0,0,0,.287,2.3H2.009A.287.287,0,0,0,2.3,2.009V.287A.287.287,0,0,0,2.009,0Z" stroke="none"/>
        <path d="M 0.2869584560394287 -1.430511474609375e-06 L 2.008678436279297 -1.430511474609375e-06 C 2.167158603668213 -1.430511474609375e-06 2.295638561248779 0.1284785270690918 2.295638561248779 0.2869584560394287 L 2.295638561248779 2.008678436279297 C 2.295638561248779 2.167158603668213 2.167158603668213 2.295638561248779 2.008678436279297 2.295638561248779 L 0.2869584560394287 2.295638561248779 C 0.1284785270690918 2.295638561248779 -1.430511474609375e-06 2.167158603668213 -1.430511474609375e-06 2.008678436279297 L -1.430511474609375e-06 0.2869584560394287 C -1.430511474609375e-06 0.1284785270690918 0.1284785270690918 -1.430511474609375e-06 0.2869584560394287 -1.430511474609375e-06 Z M 1.721728563308716 1.721728563308716 L 1.721728563308716 0.5739085674285889 L 0.5739085674285889 0.5739085674285889 L 0.5739085674285889 1.721728563308716 L 1.721728563308716 1.721728563308716 Z" stroke="none" fill="#5414b4"/>
      </g>
      <g id="Rectangle_342_Stroke_" data-name="Rectangle 342 (Stroke)" transform="translate(510.983 522.852)" fill="none">
        <path d="M.574.574V1.722H1.722V.574ZM.287,0A.287.287,0,0,0,0,.287V2.009A.287.287,0,0,0,.287,2.3H2.009A.287.287,0,0,0,2.3,2.009V.287A.287.287,0,0,0,2.009,0Z" stroke="none"/>
        <path d="M 0.2869584560394287 -1.430511474609375e-06 L 2.008678436279297 -1.430511474609375e-06 C 2.167158603668213 -1.430511474609375e-06 2.295638561248779 0.1284785270690918 2.295638561248779 0.2869584560394287 L 2.295638561248779 2.008678436279297 C 2.295638561248779 2.167158603668213 2.167158603668213 2.295638561248779 2.008678436279297 2.295638561248779 L 0.2869584560394287 2.295638561248779 C 0.1284785270690918 2.295638561248779 -1.430511474609375e-06 2.167158603668213 -1.430511474609375e-06 2.008678436279297 L -1.430511474609375e-06 0.2869584560394287 C -1.430511474609375e-06 0.1284785270690918 0.1284785270690918 -1.430511474609375e-06 0.2869584560394287 -1.430511474609375e-06 Z M 1.721728563308716 1.721728563308716 L 1.721728563308716 0.5739085674285889 L 0.5739085674285889 0.5739085674285889 L 0.5739085674285889 1.721728563308716 L 1.721728563308716 1.721728563308716 Z" stroke="none" fill="#5414b4"/>
      </g>
    </g>
  </g>
</svg>
