<svg xmlns="http://www.w3.org/2000/svg" xmlns:xlink="http://www.w3.org/1999/xlink" width="24" height="24" viewBox="0 0 24 24">
  <defs>
    <clipPath id="clip-Zoom-out">
      <rect width="24" height="24"/>
    </clipPath>
  </defs>
  <g id="Zoom-out" clip-path="url(#clip-Zoom-out)">
    <g id="Group_7539" data-name="Group 7539">
      <g id="Group_7538" data-name="Group 7538">
        <g id="Path_14490" data-name="Path 14490" fill="#fff">
          <path d="M 20 23.5 L 4 23.5 C 2.070090055465698 23.5 0.5 21.67356109619141 0.5 19.4285717010498 L 0.5 4.571431159973145 C 0.5 2.326441049575806 2.070090055465698 0.5000009536743164 4 0.5000009536743164 L 20 0.5000009536743164 C 21.92991065979004 0.5000009536743164 23.5 2.326441049575806 23.5 4.571431159973145 L 23.5 19.4285717010498 C 23.5 21.67356109619141 21.92991065979004 23.5 20 23.5 Z" stroke="none"/>
          <path d="M 4 1.000001907348633 C 2.345790863037109 1.000001907348633 1 2.602140426635742 1 4.571430206298828 L 1 19.42856979370117 C 1 21.39786148071289 2.345790863037109 23 4 23 L 20 23 C 21.65420913696289 23 23 21.39786148071289 23 19.42856979370117 L 23 4.571430206298828 C 23 2.602140426635742 21.65420913696289 1.000001907348633 20 1.000001907348633 L 4 1.000001907348633 M 4 1.9073486328125e-06 L 20 1.9073486328125e-06 C 22.20914077758789 1.9073486328125e-06 24 2.046701431274414 24 4.571430206298828 L 24 19.42856979370117 C 24 21.95330047607422 22.20914077758789 24 20 24 L 4 24 C 1.790859222412109 24 0 21.95330047607422 0 19.42856979370117 L 0 4.571430206298828 C 0 2.046701431274414 1.790859222412109 1.9073486328125e-06 4 1.9073486328125e-06 Z" stroke="none" fill="#0babdb"/>
        </g>
        <path id="Path_14489" data-name="Path 14489" d="M713.219,934.276a1.011,1.011,0,0,1-.744-.334l-2.839-3.008a5.577,5.577,0,0,1-3.3,1.091,6.2,6.2,0,1,1,5.826-6.191,6.445,6.445,0,0,1-1.026,3.509l2.84,3.017a1.174,1.174,0,0,1,.305.791,1.091,1.091,0,0,1-1.06,1.125m-6.886-12.382a3.947,3.947,0,1,0,3.708,3.94,3.835,3.835,0,0,0-3.708-3.94m2.648,4.222a.28.28,0,0,1-.265.281h-4.768a.281.281,0,0,1-.265-.281v-.564a.282.282,0,0,1,.265-.281h4.768a.281.281,0,0,1,.265.281Z" transform="translate(-695.505 -914.643)" fill="#0babdb"/>
      </g>
    </g>
  </g>
</svg>
